<svg width="15" height="14" viewBox="0 0 15 14" fill="none" xmlns="http://www.w3.org/2000/svg">
<path d="M6.25439 1.0625C5.94189 1.375 5.97314 1.84375 6.25439 2.15625L10.0356 5.75H1.03564C0.629395 5.75 0.285645 6.0625 0.285645 6.5V7.5C0.285645 7.90625 0.629395 8.25 1.03564 8.25H10.0356L6.25439 11.8125C5.97314 12.125 5.94189 12.5938 6.25439 12.9062L6.94189 13.5938C7.22314 13.875 7.72314 13.875 8.00439 13.5938L14.0669 7.5C14.3794 7.21875 14.3794 6.75 14.0669 6.46875L8.00439 0.375C7.72314 0.09375 7.25439 0.09375 6.94189 0.375L6.25439 1.0625Z" fill="#959EAD"/>
</svg>
