<svg width="24" height="24" viewBox="0 0 24 24" fill="none" xmlns="http://www.w3.org/2000/svg">
<path d="M12 10.6949L18.2222 4.47208C18.6518 4.04251 19.3482 4.04251 19.7778 4.47208C20.1767 4.87098 20.2052 5.50001 19.8633 5.93178L19.7778 6.02772L13.555 12.2499L19.7778 18.4721C20.1767 18.871 20.2052 19.5 19.8633 19.9318L19.7778 20.0277C19.3789 20.4266 18.7499 20.4551 18.3181 20.1132L18.2222 20.0277L12 13.8049L5.77782 20.0277C5.37893 20.4266 4.7499 20.4551 4.31813 20.1132L4.22218 20.0277C3.82329 19.6288 3.7948 18.9998 4.13671 18.568L4.22218 18.4721L10.445 12.2499L4.22218 6.02772C3.82329 5.62883 3.7948 4.9998 4.13671 4.56803L4.22218 4.47208C4.62108 4.07319 5.25011 4.0447 5.68188 4.38661L5.77782 4.47208L12 10.6949L18.2222 4.47208L12 10.6949Z" fill="#183B56"/>
</svg>
