<svg width="22" height="18" viewBox="0 0 22 18" fill="none" xmlns="http://www.w3.org/2000/svg">
<path fill-rule="evenodd" clip-rule="evenodd" d="M1.09009 2.2H20.9099C21.5119 2.2 22 1.70751 22 1.1C22 0.492487 21.5119 0 20.9099 0H1.09009C0.48805 0 0 0.492487 0 1.1C0 1.70751 0.48805 2.2 1.09009 2.2ZM1.09009 9.94836H20.9099C21.5119 9.94836 22 9.45588 22 8.84836C22 8.24085 21.5119 7.74836 20.9099 7.74836H1.09009C0.48805 7.74836 0 8.24085 0 8.84836C0 9.45588 0.48805 9.94836 1.09009 9.94836ZM20.9099 17.6967H1.09009C0.48805 17.6967 0 17.2042 0 16.5967C0 15.9892 0.48805 15.4967 1.09009 15.4967H20.9099C21.5119 15.4967 22 15.9892 22 16.5967C22 17.2042 21.5119 17.6967 20.9099 17.6967Z" fill="#3A4C66"/>
</svg>
